<svg xmlns="http://www.w3.org/2000/svg" xmlns:xlink="http://www.w3.org/1999/xlink" viewBox="0 0 1024 1024" width="20" height="20" style="" filter="none">
    
    <g>
    <path d="M544 128C314.24 128 128 314.24 128 544 128 773.76 314.24 960 544 960c229.76 0 416-186.24 416-416C960 314.24 773.76 128 544 128zM544 896C349.44 896 192 738.56 192 544 192 349.44 349.44 192 544 192 738.56 192 896 349.44 896 544 896 738.56 738.56 896 544 896zM544 384C455.68 384 384 455.68 384 544 384 632.32 455.68 704 544 704 632.32 704 704 632.32 704 544 704 455.68 632.32 384 544 384z" p-id="7525" fill="rgba(59,60,65,1)"></path>
    </g>
  </svg>