<svg xmlns="http://www.w3.org/2000/svg" xmlns:xlink="http://www.w3.org/1999/xlink" viewBox="0 0 1024 1024" width="16" height="16" style="" filter="none">
    
    <g>
    <path d="M100.608 574.208h76.544V269.312h-66.304v-79.36c38.656-10.752 64-25.088 89.088-48.128h63.488v432.384h65.024v103.68h-227.84v-103.68z m277.76 30.208C468.48 482.56 529.152 385.28 529.152 307.456c0-48.896-18.432-75.776-47.104-75.776-24.832 0-44.032 24.576-61.184 51.968l-47.104-69.12c35.328-55.552 68.352-82.944 119.808-82.944 69.888 0 118.272 66.304 118.272 168.704 0 92.16-53.248 193.792-108.544 276.736 17.92-3.584 42.752-7.168 58.624-7.168h66.304v108.032H378.112v-73.472z m286.208 8.704l39.68-80.64c21.76 30.976 47.104 51.968 75.264 51.968 33.536 0 55.296-20.992 55.296-61.184 0-46.08-16.384-73.472-92.16-73.472V359.68c61.44 0 80.896-28.16 80.896-70.656 0-36.864-14.592-56.832-41.216-56.832-24.32 0-42.752 16.64-64.512 44.8l-43.52-78.592c33.536-41.728 69.376-66.304 111.872-66.304 74.752 0 123.648 51.968 123.648 147.712 0 53.248-19.456 95.232-58.112 118.272v3.584c40.192 17.92 69.888 61.184 69.888 130.56 0 100.096-61.44 156.416-133.376 156.416-57.088-0.512-97.28-30.208-123.648-75.52zM88.32 834.56h817.664v84.48H88.32z" p-id="6280" fill="rgba(59,60,65,1)"></path>
    </g>
  </svg>